<?xml version="1.0" encoding="UTF-8" standalone="no"?>
<!-- Created with Inkscape (http://www.inkscape.org/) -->

<svg
   xmlns:dc="http://purl.org/dc/elements/1.1/"
   xmlns:cc="http://creativecommons.org/ns#"
   xmlns:rdf="http://www.w3.org/1999/02/22-rdf-syntax-ns#"
   xmlns:svg="http://www.w3.org/2000/svg"
   xmlns="http://www.w3.org/2000/svg"
   xmlns:xlink="http://www.w3.org/1999/xlink"
   xmlns:sodipodi="http://sodipodi.sourceforge.net/DTD/sodipodi-0.dtd"
   xmlns:inkscape="http://www.inkscape.org/namespaces/inkscape"
   width="86"
   height="86"
   id="svg2"
   version="1.1"
   inkscape:version="0.91 r13725"
   sodipodi:docname="donnie-icon.svg"
   inkscape:export-filename="C:\Users\Stephan\Desktop\double-shape.png"
   inkscape:export-xdpi="90"
   inkscape:export-ydpi="90">
  <defs
     id="defs4">
    <linearGradient
       inkscape:collect="always"
       id="linearGradient4272">
      <stop
         style="stop-color:#ff6600;stop-opacity:1;"
         offset="0"
         id="stop4274" />
      <stop
         style="stop-color:#ff6600;stop-opacity:0;"
         offset="1"
         id="stop4276" />
    </linearGradient>
    <linearGradient
       id="linearGradient3789-6">
      <stop
         style="stop-color:#1e9bff;stop-opacity:1;"
         offset="0"
         id="stop3791-0" />
      <stop
         style="stop-color:#00c8de;stop-opacity:1;"
         offset="1"
         id="stop3793-4" />
    </linearGradient>
    <linearGradient
       inkscape:collect="always"
       xlink:href="#linearGradient4272"
       id="linearGradient4278"
       x1="0.3"
       y1="47"
       x2="260"
       y2="45"
       gradientUnits="userSpaceOnUse" />
  </defs>
  <sodipodi:namedview
     id="base"
     pagecolor="#ffffff"
     bordercolor="#666666"
     borderopacity="1.0"
     inkscape:pageopacity="0.0"
     inkscape:pageshadow="2"
     inkscape:zoom="5.6568542"
     inkscape:cx="52.838272"
     inkscape:cy="67.481419"
     inkscape:document-units="px"
     inkscape:current-layer="layer2"
     showgrid="true"
     inkscape:window-width="1838"
     inkscape:window-height="1051"
     inkscape:window-x="73"
     inkscape:window-y="-9"
     inkscape:window-maximized="1"
     inkscape:snap-bbox="true"
     inkscape:snap-global="true">
    <inkscape:grid
       type="xygrid"
       id="grid2985"
       empspacing="5"
       visible="true"
       enabled="true"
       snapvisiblegridlinesonly="true" />
  </sodipodi:namedview>
  <metadata
     id="metadata7">
    <rdf:RDF>
      <cc:Work
         rdf:about="">
        <dc:format>image/svg+xml</dc:format>
        <dc:type
           rdf:resource="http://purl.org/dc/dcmitype/StillImage" />
        <dc:title />
      </cc:Work>
    </rdf:RDF>
  </metadata>
  <g
     inkscape:groupmode="layer"
     id="layer2"
     inkscape:label="Ebene"
     style="display:inline"
     transform="translate(0,-4)">
    <g
       id="g15"
       transform="matrix(0.166362,0,0,0.16654357,2.257539,4.3034055)" />
    <g
       id="g17"
       transform="matrix(0.166362,0,0,0.16654357,2.257539,4.3034055)" />
    <g
       id="g19"
       transform="matrix(0.166362,0,0,0.16654357,2.257539,4.3034055)" />
    <g
       id="g21"
       transform="matrix(0.166362,0,0,0.16654357,2.257539,4.3034055)" />
    <g
       id="g23"
       transform="matrix(0.166362,0,0,0.16654357,2.257539,4.3034055)" />
    <g
       id="g25"
       transform="matrix(0.166362,0,0,0.16654357,2.257539,4.3034055)" />
    <g
       id="g27"
       transform="matrix(0.166362,0,0,0.16654357,2.257539,4.3034055)" />
    <g
       id="g29"
       transform="matrix(0.166362,0,0,0.16654357,2.257539,4.3034055)" />
    <g
       id="g31"
       transform="matrix(0.166362,0,0,0.16654357,2.257539,4.3034055)" />
    <g
       id="g33"
       transform="matrix(0.166362,0,0,0.16654357,2.257539,4.3034055)" />
    <g
       id="g35"
       transform="matrix(0.166362,0,0,0.16654357,2.257539,4.3034055)" />
    <g
       id="g37"
       transform="matrix(0.166362,0,0,0.16654357,2.257539,4.3034055)" />
    <g
       id="g39"
       transform="matrix(0.166362,0,0,0.16654357,2.257539,4.3034055)" />
    <g
       id="g41"
       transform="matrix(0.166362,0,0,0.16654357,2.257539,4.3034055)" />
    <g
       id="g43"
       transform="matrix(0.166362,0,0,0.16654357,2.257539,4.3034055)" />
    <g
       id="g4290">
      <path
         d="m 85.699,5.723 c 0,-0.786 -0.637,-1.423 -1.423,-1.423 0,0 -40.641,0 -41.276,0 C 19.417,4.3 0.3,23.417 0.3,47 0.3,70.582 19.417,89.7 43,89.7 66.583,89.7 85.7,70.582 85.7,47 85.7,46.364 85.699,5.723 85.699,5.723 z"
         id="path13"
         style="fill:url(#linearGradient4278);fill-opacity:1;stroke:#000000;stroke-opacity:1;stroke-width:1.3;stroke-miterlimit:4;stroke-dasharray:none"
         inkscape:connector-curvature="0" />
      <g
         id="g3416"
         transform="matrix(0.32056204,0,0,0.31615295,7.4998977,8.833084)">
        <g
           transform="scale(0.93652533,0.97234381)"
           id="g4264">
          <g
             style="display:inline"
             transform="matrix(0.74117329,0,0,0.7670173,-4.4864135,-44.54412)"
             id="g9">
            <g
               id="g11">
              <path
                 inkscape:connector-curvature="0"
                 id="path13-5"
                 d="m 208.06329,81.317655 0,154.803515 c -3.87076,-0.42267 -7.82629,-0.65466 -11.86516,-0.65466 -46.57411,0 -83.05608,29.01991 -83.05608,66.06379 0,37.04388 36.48341,66.06379 83.05608,66.06379 46.57268,0 83.05609,-29.01991 83.05609,-66.06379 l 0,-154.14752 59.32578,0 0,-66.063791 -130.51671,0 z" />
            </g>
          </g>
          <path
             inkscape:connector-curvature="0"
             d="m 97.745,195.491 c -1.381,0 -2.5,-1.119 -2.5,-2.5 l 0,-20.036 c -18.96,-0.621 -36.163,-8.289 -49.078,-20.464 l -14.371,14.371 c -0.977,0.977 -2.559,0.977 -3.535,0 -0.977,-0.976 -0.977,-2.559 0,-3.535 L 42.644,148.943 C 30.676,136.071 23.152,119.019 22.537,100.246 l -20.037,0 c -1.381,0 -2.5,-1.119 -2.5,-2.5 0,-1.381 1.119,-2.5 2.5,-2.5 l 20.036,0 C 23.151,76.473 30.676,59.42 42.643,46.548 L 28.261,32.164 c -0.977,-0.976 -0.977,-2.559 0,-3.535 0.977,-0.977 2.559,-0.977 3.535,0 L 46.167,43 C 59.082,30.824 76.285,23.157 95.245,22.536 l 0,-20.036 c 0,-1.381 1.119,-2.5 2.5,-2.5 1.381,0 2.5,1.119 2.5,2.5 l 0,20.037 c 18.909,0.62 36.074,8.25 48.978,20.37 L 163.5,28.629 c 0.977,-0.977 2.559,-0.977 3.535,0 0.977,0.976 0.977,2.559 0,3.535 l -14.282,14.283 c 12.021,12.883 19.584,29.977 20.201,48.798 l 20.036,0 c 1.381,0 2.5,1.119 2.5,2.5 0,1.381 -1.119,2.5 -2.5,2.5 l -20.036,0 c -0.617,18.821 -8.18,35.915 -20.201,48.798 l 14.282,14.283 c 0.977,0.976 0.977,2.559 0,3.535 -0.977,0.977 -2.559,0.977 -3.535,0 l -14.277,-14.277 c -12.903,12.119 -30.068,19.75 -48.978,20.37 l 0,20.036 c 0,1.382 -1.119,2.501 -2.5,2.501 z m 0,-167.995 c -38.736,0 -70.25,31.514 -70.25,70.25 0,38.736 31.514,70.25 70.25,70.25 38.736,0 70.25,-31.514 70.25,-70.25 0,-38.736 -31.513,-70.25 -70.25,-70.25 z m 0,131 c -16.609,0 -31.684,-6.7 -42.661,-17.54 -0.104,-0.075 -0.203,-0.16 -0.296,-0.253 -0.094,-0.093 -0.178,-0.192 -0.254,-0.296 -10.84,-10.978 -17.539,-26.051 -17.539,-42.661 0,-16.61 6.699,-31.683 17.539,-42.661 0.076,-0.104 0.16,-0.203 0.254,-0.296 0.094,-0.094 0.192,-0.178 0.296,-0.254 10.978,-10.84 26.052,-17.54 42.661,-17.54 16.612,0 31.686,6.7 42.664,17.542 0.103,0.075 0.2,0.159 0.292,0.251 0.093,0.092 0.176,0.19 0.251,0.292 10.842,10.978 17.543,26.053 17.543,42.665 0,16.612 -6.701,31.687 -17.543,42.665 -0.075,0.102 -0.158,0.2 -0.251,0.292 -0.092,0.093 -0.189,0.176 -0.292,0.251 -10.978,10.842 -26.051,17.543 -42.664,17.543 z m 2.5,-37.885 0,32.83 c 13.492,-0.598 25.749,-6.012 35.096,-14.563 l -23.203,-23.204 c -3.331,2.679 -7.422,4.451 -11.893,4.937 z M 60.15,138.876 c 9.347,8.551 21.604,13.966 35.096,14.564 l 0,-32.83 c -4.471,-0.485 -8.562,-2.258 -11.893,-4.938 L 60.15,138.876 Z m 55.524,-26.738 23.202,23.204 c 8.552,-9.347 13.966,-21.604 14.563,-35.096 l -32.829,0 c -0.485,4.471 -2.257,8.561 -4.936,11.892 z M 42.051,100.246 c 0.598,13.492 6.012,25.749 14.563,35.095 l 23.203,-23.203 c -2.679,-3.331 -4.451,-7.421 -4.937,-11.892 l -32.829,0 z m 55.694,-20.5 c -9.925,0 -18,8.075 -18,18 0,9.925 8.075,18 18,18 9.925,0 18,-8.075 18,-18 0,-9.925 -8.075,-18 -18,-18 z m 22.866,15.5 32.829,0 C 152.842,81.754 147.428,69.497 138.877,60.15 l -23.203,23.203 c 2.679,3.331 4.451,7.421 4.937,11.893 z m -78.56,0 32.829,0 c 0.485,-4.471 2.258,-8.562 4.938,-11.893 L 56.614,60.15 C 48.063,69.497 42.649,81.754 42.051,95.246 Z M 60.15,56.615 83.353,79.818 c 3.331,-2.679 7.422,-4.452 11.893,-4.937 l 0,-32.83 C 81.753,42.648 69.496,48.063 60.15,56.615 Z m 40.095,18.265 c 4.471,0.485 8.562,2.258 11.893,4.937 L 135.341,56.614 C 125.994,48.063 113.737,42.648 100.245,42.051 l 0,32.829 z"
             id="path3378" />
        </g>
        <g
           id="g3380" />
        <g
           id="g3382" />
        <g
           id="g3384" />
        <g
           id="g3386" />
        <g
           id="g3388" />
        <g
           id="g3390" />
        <g
           id="g3392" />
        <g
           id="g3394" />
        <g
           id="g3396" />
        <g
           id="g3398" />
        <g
           id="g3400" />
        <g
           id="g3402" />
        <g
           id="g3404" />
        <g
           id="g3406" />
        <g
           id="g3408" />
      </g>
    </g>
  </g>
</svg>
